<?xml version="1.0" encoding="UTF-8"?>
<svg version="1.1" xmlns="http://www.w3.org/2000/svg" width="512" height="512">
<path d="M0 0 C1.01790619 0.00215515 2.03581238 0.0043103 3.08456421 0.00653076 C17.69363523 0.05620146 32.02575853 0.30709809 46.375 3.3125 C47.34985352 3.51117676 48.32470703 3.70985352 49.32910156 3.91455078 C97.7109774 14.03517194 141.69928269 35.9516877 177.375 70.3125 C178.3640332 71.26068604 178.3640332 71.26068604 179.37304688 72.22802734 C188.86130305 81.37247479 197.6012044 90.66984009 205.375 101.3125 C206.23306152 102.46355017 207.09113451 103.61459177 207.94921875 104.765625 C213.98736829 112.95680614 219.34595521 121.47054105 224.375 130.3125 C224.73948242 130.94430176 225.10396484 131.57610352 225.47949219 132.22705078 C247.08534998 169.97532572 256.85198095 212.74189997 256.6875 255.9375 C256.68534485 256.95540619 256.6831897 257.97331238 256.68096924 259.02206421 C256.63129854 273.63113523 256.38040191 287.96325853 253.375 302.3125 C253.07698486 303.77478027 253.07698486 303.77478027 252.77294922 305.26660156 C242.65232806 353.6484774 220.7358123 397.63678269 186.375 433.3125 C185.74287598 433.97185547 185.11075195 434.63121094 184.45947266 435.31054688 C175.31502521 444.79880305 166.01765991 453.5387044 155.375 461.3125 C154.22394983 462.17056152 153.07290823 463.02863451 151.921875 463.88671875 C143.73224019 469.92427396 135.22961724 475.30707302 126.375 480.3125 C125.66778809 480.7146875 124.96057617 481.116875 124.23193359 481.53125 C101.09654164 494.5566741 75.92537591 503.30551461 49.9375 508.625 C49.21860596 508.77235596 48.49971191 508.91971191 47.7590332 509.0715332 C33.08339502 511.86090125 18.55831162 512.66142619 3.64770508 512.62817383 C0.70811513 512.6250221 -2.2304558 512.64854926 -5.16992188 512.67382812 C-18.54306192 512.71848737 -31.43916711 511.51301542 -44.625 509.3125 C-46.33055054 509.03031616 -46.33055054 509.03031616 -48.07055664 508.74243164 C-91.33802759 500.97044532 -132.38793216 480.98345309 -165.625 452.3125 C-166.37007813 451.67828125 -167.11515625 451.0440625 -167.8828125 450.390625 C-181.38779833 438.57948485 -194.05918743 425.82889772 -204.625 411.3125 C-205.48149066 410.16255169 -206.33826433 409.01281411 -207.1953125 407.86328125 C-213.23534209 399.67315742 -218.61867614 391.16870382 -223.625 382.3125 C-224.0271875 381.60528809 -224.429375 380.89807617 -224.84375 380.16943359 C-237.8691741 357.03404164 -246.61801461 331.86287591 -251.9375 305.875 C-252.08485596 305.15610596 -252.23221191 304.43721191 -252.3840332 303.6965332 C-255.35789088 288.05024391 -255.99800362 272.57681954 -255.9375 256.6875 C-255.93534485 255.66959381 -255.9331897 254.65168762 -255.93096924 253.60293579 C-255.88129854 238.99386477 -255.63040191 224.66174147 -252.625 210.3125 C-252.42632324 209.33764648 -252.22764648 208.36279297 -252.02294922 207.35839844 C-241.90232806 158.9765226 -219.9858123 114.98821731 -185.625 79.3125 C-184.99287598 78.65314453 -184.36075195 77.99378906 -183.70947266 77.31445312 C-174.56502521 67.82619695 -165.26765991 59.0862956 -154.625 51.3125 C-153.47394983 50.45443848 -152.32290823 49.59636549 -151.171875 48.73828125 C-142.98224019 42.70072604 -134.47961724 37.31792698 -125.625 32.3125 C-124.91778809 31.9103125 -124.21057617 31.508125 -123.48193359 31.09375 C-100.34654164 18.0683259 -75.17537591 9.31948539 -49.1875 4 C-48.46860596 3.85264404 -47.74971191 3.70528809 -47.0090332 3.5534668 C-31.36274391 0.57960912 -15.88931954 -0.06050362 0 0 Z " fill="#E5EBFE" transform="translate(255.625,-0.3125)"/>
<path d="M0 0 C2.8100346 1.79363911 4.50940468 3.01880935 6 6 C6.32565159 11.75589266 5.58358283 16.40497464 3.71112061 21.86904907 C3.46484617 22.61894116 3.21857174 23.36883324 2.96483445 24.14144933 C2.14251251 26.63548758 1.30327353 29.1234812 0.46386719 31.61181641 C-0.13162397 33.40586123 -0.72608492 35.20024827 -1.31959534 36.99494934 C-2.93062266 41.85590829 -4.55665602 46.71172332 -6.18594837 51.56658602 C-7.89060919 56.65282704 -9.58305562 61.74313146 -11.27728271 66.83285522 C-14.12388011 75.37804814 -16.98015659 83.91995846 -19.84228516 92.45996094 C-23.1494758 102.32830566 -26.4417146 112.20154033 -29.72589421 122.07756484 C-32.88801399 131.58549405 -36.0603143 141.0899958 -39.23738861 150.59293747 C-40.58823591 154.63397333 -41.93558161 158.67615151 -43.28012848 162.71928787 C-44.86420071 167.48106005 -46.45719466 172.23975559 -48.05708122 176.9962368 C-48.64227046 178.74069072 -49.22442035 180.48616764 -49.80327797 182.23273277 C-50.59494466 184.61967555 -51.39763667 187.00263107 -52.20318604 189.38491821 C-52.42888252 190.07402774 -52.654579 190.76313728 -52.88711476 191.47312891 C-54.7617619 196.95352925 -56.72792054 201.82270425 -62.01766968 204.56362915 C-63.23306427 204.95722626 -64.44845886 205.35082336 -65.70068359 205.75634766 C-66.39690952 205.98878551 -67.09313545 206.22122337 -67.81045914 206.4607048 C-70.2088104 207.25636799 -72.61584556 208.02185287 -75.0234375 208.7890625 C-76.80649983 209.3749684 -78.58880873 209.96317094 -80.37045288 210.55337524 C-84.50150233 211.91951252 -88.63602864 213.27451319 -92.77233887 214.62463379 C-100.87604518 217.27830743 -108.95629578 220.00032571 -117.03613281 222.72558594 C-120.12895255 223.76837329 -123.22183243 224.81098208 -126.3147583 225.85345459 C-127.09920814 226.11786826 -127.88365798 226.38228194 -128.69187903 226.65470815 C-139.28890486 230.22509086 -149.89469609 233.7692946 -160.50004959 237.31484604 C-169.83223511 240.43503782 -179.16203996 243.56215414 -188.48895037 246.69808042 C-195.14386826 248.93495707 -201.80143629 251.16382289 -208.46101987 253.38676989 C-212.40555951 254.703692 -216.34885391 256.02408286 -220.28926468 257.35331345 C-223.96225137 258.59217579 -227.63841636 259.82108868 -231.31726265 261.0424366 C-232.66046406 261.49027984 -234.00247888 261.94170089 -235.34316444 262.39702034 C-237.17663774 263.01909186 -239.01494372 263.62686439 -240.85342407 264.23397827 C-242.38991073 264.74871736 -242.38991073 264.74871736 -243.95743752 265.27385521 C-247.45010943 266.10742413 -250.42145353 266.28528252 -254 266 C-256.875 263.5625 -256.875 263.5625 -259 261 C-259.33 260.67 -259.66 260.34 -260 260 C-260.33103233 254.24965484 -259.58140268 249.58866342 -257.71112061 244.13095093 C-257.46484617 243.38105884 -257.21857174 242.63116676 -256.96483445 241.85855067 C-256.14251251 239.36451242 -255.30327353 236.8765188 -254.46386719 234.38818359 C-253.86837603 232.59413877 -253.27391508 230.79975173 -252.68040466 229.00505066 C-251.06937734 224.14409171 -249.44334398 219.28827668 -247.81405163 214.43341398 C-246.10939081 209.34717296 -244.41694438 204.25686854 -242.72271729 199.16714478 C-239.87611989 190.62195186 -237.01984341 182.08004154 -234.15771484 173.54003906 C-230.8505242 163.67169434 -227.5582854 153.79845967 -224.27410579 143.92243516 C-221.11198601 134.41450595 -217.9396857 124.9100042 -214.76261139 115.40706253 C-213.41176409 111.36602667 -212.06441839 107.32384849 -210.71987152 103.28071213 C-209.13579929 98.51893995 -207.54280534 93.76024441 -205.94291878 89.0037632 C-205.35772954 87.25930928 -204.77557965 85.51383236 -204.19672203 83.76726723 C-203.40505534 81.38032445 -202.60236333 78.99736893 -201.79681396 76.61508179 C-201.45826924 75.58141749 -201.45826924 75.58141749 -201.11288524 74.52687109 C-199.43401563 69.61881273 -197.55589448 64.62648213 -193.02854347 61.74543381 C-192.3025363 61.49676182 -191.57652912 61.24808983 -190.82852173 60.99188232 C-189.50033354 60.52094273 -189.50033354 60.52094273 -188.14531326 60.0404892 C-187.10735989 59.69712776 -186.06940651 59.35376633 -185 59 C-183.77514263 58.57492409 -182.55028526 58.14984818 -181.288311 57.71189117 C-176.78395338 56.15292081 -172.26407071 54.64151199 -167.74365234 53.12988281 C-166.01126446 52.54823627 -164.27895142 51.96636674 -162.54670715 51.3842926 C-156.8945405 49.48631151 -151.24029454 47.59456848 -145.5859375 45.703125 C-143.63278545 45.04937325 -141.67964653 44.39558225 -139.72652054 43.74175262 C-130.55775038 40.67282341 -121.38803065 37.60675238 -112.21712434 34.54421258 C-101.6477344 31.01455434 -91.08173893 27.47496259 -80.51848066 23.92699742 C-72.33674436 21.1796497 -64.15196159 18.44151321 -55.96483767 15.71026301 C-51.08118553 14.08081305 -46.19893255 12.44743396 -41.31986618 10.8042984 C-36.73503842 9.26050542 -32.14653718 7.72817825 -27.55498314 6.20451164 C-25.87341782 5.64432012 -24.19320919 5.08003662 -22.5145092 4.5113163 C-20.21801097 3.73399784 -17.91702195 2.97174921 -15.61434937 2.21295166 C-14.62648849 1.87269545 -14.62648849 1.87269545 -13.61867082 1.52556539 C-8.86075743 -0.01694874 -4.94061596 -0.34045729 0 0 Z " fill="#4294FE" transform="translate(383,123)"/>
<path d="M0 0 C2.8100346 1.79363911 4.50940468 3.01880935 6 6 C6.32751907 11.76397359 5.57915529 16.41294371 3.69766235 21.88250732 C3.44997679 22.63381054 3.20229123 23.38511376 2.94710004 24.15918374 C2.12011278 26.65790472 1.27619142 29.15055492 0.43212891 31.64355469 C-0.16662583 33.44083715 -0.76433138 35.23846944 -1.36106873 37.03642273 C-2.98046834 41.90544093 -4.61469325 46.76936457 -6.2518115 51.63244915 C-7.96345067 56.72472396 -9.66192543 61.82138649 -11.36196899 66.9175415 C-14.21741035 75.4709797 -17.08170796 84.02140852 -19.95214844 92.56982422 C-23.63733472 103.54472814 -27.30873344 114.52419064 -30.97550011 125.50526047 C-34.12827635 134.94699049 -37.28641149 144.38692632 -40.44590807 153.82640934 C-41.12396945 155.85249531 -41.80184518 157.87864342 -42.47953749 159.90485287 C-44.41063179 165.6785621 -46.34454198 171.45131039 -48.28329659 177.22245216 C-48.87045107 178.97167273 -49.45660393 180.72122986 -50.04168892 182.47114372 C-50.83957911 184.8568486 -51.64113883 187.24128871 -52.44369507 189.62542725 C-52.67521723 190.32036246 -52.90673939 191.01529768 -53.14527738 191.73129153 C-54.23180953 194.94613712 -55.37190281 198.01774039 -57 201 C-60.9425255 199.40476175 -63.59302432 196.68131155 -66.5302124 193.71029663 C-67.07674257 193.16547532 -67.62327273 192.620654 -68.18636441 192.05932295 C-70.01672504 190.23225694 -71.83984509 188.39813375 -73.66308594 186.56396484 C-74.97357453 185.25291214 -76.28450362 183.94229962 -77.59584045 182.63209534 C-81.15576769 179.07274259 -84.70948913 175.50725126 -88.26214504 171.94064283 C-91.97549204 168.21480448 -95.69449283 164.49461844 -99.41290283 160.77383423 C-106.45393653 153.72658107 -113.4898559 146.67424457 -120.52396131 139.62007678 C-128.53205094 131.58964264 -136.54581142 123.56487787 -144.56005812 115.54058909 C-161.0463656 99.03336907 -177.52552308 82.51902654 -194 66 C-193.05248087 63.60973984 -192.45804364 62.27251406 -190.21417427 60.93751907 C-189.462479 60.66481564 -188.71078373 60.3921122 -187.93630981 60.11114502 C-187.0329401 59.77918373 -186.12957039 59.44722244 -185.19882584 59.10520172 C-184.14321331 58.74048515 -183.08760078 58.37576859 -182 58 C-180.7883807 57.57761803 -179.5767614 57.15523605 -178.32842636 56.72005463 C-173.9015214 55.19197002 -169.46044778 53.70697097 -165.01904297 52.22167969 C-163.3162114 51.64988506 -161.61345465 51.07786761 -159.9107666 50.50564575 C-154.35599613 48.64013245 -148.79914772 46.78085317 -143.2421875 44.921875 C-141.32246747 44.27926718 -139.40276056 43.63662018 -137.48306656 42.99393463 C-128.47127341 39.9773317 -119.45853098 36.96358625 -110.44460189 33.95337176 C-100.05689301 30.48427381 -89.67258003 27.00524244 -79.29100311 23.51783824 C-71.24939332 20.8171984 -63.20473687 18.12577155 -55.1577388 15.44123006 C-50.35792306 13.83972569 -45.55950742 12.23429407 -40.76427841 10.61910248 C-36.25824496 9.10157256 -31.74853913 7.59551292 -27.23577881 6.0981102 C-25.58323946 5.54759396 -23.93205627 4.99298688 -22.28238297 4.43394089 C-20.02529448 3.66975601 -17.76372112 2.92065036 -15.50045776 2.17498779 C-14.85355669 1.95204127 -14.20665561 1.72909475 -13.54015148 1.49939227 C-8.81416251 -0.03203953 -4.90796806 -0.33442463 0 0 Z " fill="#376CFB" transform="translate(383,123)"/>
</svg>
